<svg xmlns="http://www.w3.org/2000/svg"  viewBox="0 0 100 100" width="50px" height="50px"><path d="M 63.263672 10.054688 A 2.0002 2.0002 0 0 0 61.287109 12.169922 C 61.287109 12.169922 61.840586 23.25208 59.945312 34.691406 C 46.802394 33.305588 36.66538 35.314729 29.105469 39.464844 C 21.15045 43.831859 16.018189 50.393525 12.763672 57.089844 C 6.2546375 70.48248 7.0136719 84.638672 7.0136719 84.638672 A 2.0002 2.0002 0 0 0 8.0625 86.298828 C 8.0625 86.298828 8.6646248 86.598183 9.6054688 86.859375 C 10.546313 87.120567 11.989126 87.430449 14.162109 87.705078 C 18.508077 88.254336 25.779393 88.658857 37.777344 88.162109 A 2.0002 2.0002 0 0 0 39.519531 85.347656 C 36.892937 79.471757 37.077217 75.061355 38.619141 71.443359 C 40.161064 67.825364 43.225975 64.917472 46.759766 62.675781 C 52.266399 59.182601 57.571204 57.784005 60.150391 57.179688 L 60.787109 81.953125 A 2.0002 2.0002 0 0 0 64.294922 83.214844 L 96.886719 45.765625 A 2.0002 2.0002 0 0 0 96.798828 43.044922 L 64.705078 10.646484 A 2.0002 2.0002 0 0 0 63.263672 10.054688 z M 65.330078 16.960938 L 73.453125 25.160156 L 71.09375 26.908203 A 1.0001 1.0001 0 1 0 72.285156 28.513672 L 74.875 26.595703 L 77.001953 28.744141 L 73.125 31.753906 A 1.0001 1.0001 0 1 0 74.351562 33.332031 L 78.419922 30.175781 L 81.535156 33.320312 L 77.109375 36.394531 A 1.0001 1.0001 0 1 0 78.25 38.037109 L 82.964844 34.763672 L 84.974609 36.792969 L 83.878906 37.576172 A 1.0002523 1.0002523 0 0 0 85.042969 39.203125 L 86.402344 38.232422 L 87.931641 39.779297 L 85.505859 41.972656 A 1.0001 1.0001 0 1 0 86.847656 43.455078 L 89.339844 41.199219 L 92.650391 44.541016 L 79.896484 59.195312 L 76.990234 57 A 1.0001 1.0001 0 0 0 76.337891 56.791016 A 1.0001 1.0001 0 0 0 75.785156 58.597656 L 78.580078 60.707031 L 76.630859 62.945312 L 74.037109 61.347656 A 1.0001 1.0001 0 0 0 73.466797 61.193359 A 1.0001 1.0001 0 0 0 72.988281 63.050781 L 75.300781 64.474609 L 72.974609 67.148438 L 70.171875 63.416016 A 1.0001 1.0001 0 0 0 69.306641 63.005859 A 1.0001 1.0001 0 0 0 68.572266 64.617188 L 71.630859 68.691406 L 64.652344 76.708984 L 64.083984 54.554688 A 2.0002 2.0002 0 0 0 61.726562 52.638672 C 61.726562 52.638672 59.197047 53.100246 55.673828 54.242188 L 55.730469 50.341797 A 1.0001 1.0001 0 0 0 54.730469 49.314453 A 1.0001 1.0001 0 0 0 53.730469 50.314453 L 53.664062 54.929688 C 51.509087 55.717177 49.127422 56.740596 46.765625 58.039062 L 45.875 55.347656 A 1.0001 1.0001 0 0 0 44.886719 54.648438 A 1.0001 1.0001 0 0 0 43.976562 55.976562 L 45 59.068359 C 44.872863 59.146907 44.743729 59.218556 44.617188 59.298828 C 44.107382 59.622227 43.602415 59.96253 43.103516 60.316406 L 40.070312 56.910156 A 1.0001 1.0001 0 0 0 39.271484 56.566406 A 1.0001 1.0001 0 0 0 38.578125 58.240234 L 41.507812 61.53125 C 38.778926 63.742046 36.388735 66.476335 34.939453 69.876953 C 33.244184 73.854761 33.083308 78.716745 34.898438 84.195312 C 32.435463 84.269037 30.177486 84.306891 28.113281 84.314453 L 28.798828 81.710938 A 1.0001 1.0001 0 0 0 27.777344 80.443359 A 1.0001 1.0001 0 0 0 26.865234 81.201172 L 26.050781 84.292969 C 24.733622 84.283693 23.393986 84.277254 22.259766 84.244141 L 23.595703 81.945312 A 1.0001 1.0001 0 0 0 22.75 80.431641 A 1.0001 1.0001 0 0 0 21.867188 80.941406 L 20.007812 84.140625 C 19.176742 84.100639 18.319195 84.065377 17.611328 84.013672 L 20.791016 79.169922 A 1.0001 1.0001 0 0 0 19.927734 77.611328 A 1.0001 1.0001 0 0 0 19.119141 78.072266 L 15.357422 83.802734 C 15.149431 83.779526 14.855555 83.762481 14.664062 83.738281 C 13.304326 83.566434 12.462484 83.395324 11.775391 83.236328 L 14.771484 80.630859 A 1.0001 1.0001 0 0 0 14.066406 78.869141 A 1.0001 1.0001 0 0 0 13.458984 79.123047 L 11.089844 81.183594 C 11.109041 80.185376 11.161364 78.941529 11.306641 77.382812 L 14.529297 75.857422 A 1.0001 1.0001 0 0 0 14.128906 73.947266 A 1.0001 1.0001 0 0 0 13.673828 74.050781 L 11.582031 75.039062 C 12.187209 70.537469 13.494692 64.736127 16.361328 58.837891 C 19.248703 52.896983 23.62859 47.258512 30.353516 43.361328 L 31.755859 45.771484 A 1.0001 1.0001 0 1 0 33.484375 44.765625 L 32.111328 42.408203 C 32.928706 41.996503 33.781168 41.610888 34.666016 41.25 L 36.427734 45.804688 A 1.0001668 1.0001668 0 1 0 38.292969 45.082031 L 36.537109 40.542969 C 37.564226 40.187486 38.636375 39.868741 39.751953 39.585938 L 40.527344 42.208984 A 1.0002041 1.0002041 0 1 0 42.445312 41.640625 L 41.705078 39.136719 C 43.124765 38.847262 44.614871 38.619707 46.175781 38.455078 L 46.544922 41.611328 A 1.0001 1.0001 0 1 0 48.53125 41.378906 L 48.169922 38.283203 C 52.127246 38.017886 56.519277 38.152711 61.414062 38.791016 A 2.0002 2.0002 0 0 0 63.636719 37.179688 C 65.267514 28.553086 65.38643 21.55948 65.330078 16.960938 z M 74.460938 42.791016 C 74.326828 42.813391 74.194266 42.861953 74.072266 42.939453 C 73.584266 43.248453 73.438047 43.894813 73.748047 44.382812 C 74.057047 44.870812 74.705359 45.015078 75.193359 44.705078 C 75.680359 44.396078 75.824625 43.749719 75.515625 43.261719 C 75.283875 42.895719 74.863266 42.723891 74.460938 42.791016 z M 81.603516 45.382812 C 81.469406 45.405188 81.338797 45.45375 81.216797 45.53125 C 80.728797 45.84025 80.582578 46.488563 80.892578 46.976562 C 81.201578 47.464562 81.849891 47.607828 82.337891 47.298828 C 82.824891 46.988828 82.969156 46.342469 82.660156 45.855469 C 82.428406 45.489469 82.005844 45.315687 81.603516 45.382812 z M 71.21875 49.671875 C 71.084641 49.69425 70.952078 49.742812 70.830078 49.820312 C 70.342078 50.129312 70.197812 50.777625 70.507812 51.265625 C 70.816812 51.753625 71.463172 51.897891 71.951172 51.587891 C 72.438172 51.278891 72.584391 50.632531 72.275391 50.144531 C 72.043641 49.778531 71.621078 49.60475 71.21875 49.671875 z M 27.992188 55.166016 C 27.858078 55.188391 27.725516 55.236953 27.603516 55.314453 C 27.115516 55.623453 26.97125 56.269813 27.28125 56.757812 C 27.59025 57.245812 28.236609 57.390078 28.724609 57.080078 C 29.212609 56.771078 29.358828 56.124719 29.048828 55.636719 C 28.817078 55.270719 28.394516 55.098891 27.992188 55.166016 z M 22.992188 62.339844 C 22.858078 62.362219 22.727469 62.410781 22.605469 62.488281 C 22.117469 62.797281 21.97125 63.443641 22.28125 63.931641 C 22.59025 64.419641 23.238563 64.565859 23.726562 64.255859 C 24.213563 63.945859 24.357828 63.297547 24.048828 62.810547 C 23.817078 62.444547 23.394516 62.272719 22.992188 62.339844 z"/></svg>