<svg xmlns="http://www.w3.org/2000/svg"  viewBox="0 0 100 100" width="20px" height="20px"><path d="M 36.896484 17.296875 L 9.4882812 17.828125 A 2.0002 2.0002 0 0 0 7.53125 19.6875 C 7.53125 19.6875 6.8515672 29.333488 6.3027344 40.478516 C 5.7539015 51.623543 5.3136813 64.14792 5.8710938 70.451172 C 6.2889992 75.179904 7.7807599 78.245968 9.2871094 80.109375 C 10.793459 81.972782 12.517578 82.703125 12.517578 82.703125 A 2.0002 2.0002 0 0 0 13.248047 82.837891 L 82.902344 82.451172 A 2.0002 2.0002 0 0 0 84.472656 81.673828 C 84.856349 81.177741 85.157207 80.598812 85.507812 80.070312 A 2.0002 2.0002 0 0 0 85.509766 80.068359 A 2.0002 2.0002 0 0 0 86.220703 78.966797 C 91.903913 69.446872 93.04137 55.083868 94.447266 34.878906 A 2.0002 2.0002 0 0 0 92.353516 32.744141 L 83.535156 33.181641 C 83.941192 28.278486 84.308594 24.75 84.308594 24.75 A 2.0002 2.0002 0 0 0 82.267578 22.515625 L 40.669922 23.65625 L 38.8125 18.605469 A 2.0002 2.0002 0 0 0 36.896484 17.296875 z M 35.550781 21.324219 L 37.412109 26.384766 A 2.0002 2.0002 0 0 0 39.34375 27.693359 L 53.701172 27.300781 L 52.757812 29.263672 A 1.0002333 1.0002333 0 0 0 54.560547 30.130859 L 55.949219 27.238281 L 58.560547 27.166016 L 56.982422 29.779297 A 1.0001876 1.0001876 0 1 0 58.695312 30.8125 L 60.9375 27.101562 L 64.330078 27.007812 L 61.365234 30.986328 A 1.0001 1.0001 0 1 0 62.96875 32.179688 L 66.876953 26.939453 L 68.931641 26.882812 L 63.601562 33.96875 A 1.0007824 1.0007824 0 1 0 65.201172 35.171875 L 71.486328 26.8125 L 80.107422 26.576172 C 79.848011 28.939262 79.239441 35.008937 78.861328 43.009766 L 71.037109 44.646484 A 1.0001 1.0001 0 1 0 71.447266 46.603516 L 78.769531 45.072266 C 78.74158 45.774752 78.70109 46.386288 78.677734 47.115234 C 78.669567 47.370141 78.667536 47.632533 78.660156 47.888672 L 68.679688 49.150391 A 1.0001 1.0001 0 1 0 68.929688 51.134766 L 78.615234 49.910156 C 78.511543 55.140147 78.58515 60.509694 79.027344 65.369141 C 79.489977 70.45321 80.320879 74.877404 81.947266 78.222656 C 81.895866 78.297766 81.850926 78.383013 81.798828 78.457031 L 78.84375 78.472656 L 73.652344 69.021484 A 1.0001 1.0001 0 0 0 72.751953 68.490234 A 1.0001 1.0001 0 0 0 71.900391 69.984375 L 76.568359 78.486328 L 75.560547 78.492188 L 71.417969 73.357422 A 1.0001 1.0001 0 0 0 70.636719 72.974609 A 1.0001 1.0001 0 0 0 69.861328 74.613281 L 73 78.505859 L 56.822266 78.595703 L 55.763672 74.75 A 1.0001 1.0001 0 0 0 54.8125 74.001953 A 1.0001 1.0001 0 0 0 53.835938 75.28125 L 54.751953 78.607422 L 52.480469 78.619141 L 51.451172 72.306641 A 1.0001 1.0001 0 0 0 50.486328 71.455078 A 1.0001 1.0001 0 0 0 49.478516 72.628906 L 50.455078 78.630859 L 47.597656 78.646484 L 47.212891 71.357422 A 1.0001 1.0001 0 0 0 46.246094 70.396484 A 1.0001 1.0001 0 0 0 45.214844 71.462891 L 45.595703 78.658203 L 19.863281 78.800781 L 21.861328 75.6875 A 1.0001 1.0001 0 0 0 20.982422 74.136719 A 1.0001 1.0001 0 0 0 20.177734 74.607422 L 17.476562 78.814453 L 14.46875 78.830078 L 18.785156 72.679688 A 1.0001 1.0001 0 0 0 17.970703 71.09375 A 1.0001 1.0001 0 0 0 17.146484 71.53125 L 12.673828 77.90625 C 12.581107 77.801967 12.502383 77.726703 12.396484 77.595703 C 11.971248 77.069671 11.509244 76.34336 11.089844 75.378906 L 16.587891 68.835938 A 1.0001 1.0001 0 0 0 15.816406 67.181641 A 1.0001 1.0001 0 0 0 15.056641 67.548828 L 10.351562 73.148438 C 10.1377 72.276731 9.9629025 71.288413 9.859375 70.138672 L 12.886719 67.513672 A 1.0001 1.0001 0 0 0 12.283203 65.75 A 1.0001 1.0001 0 0 0 11.576172 66.003906 L 9.7070312 67.625 C 9.4598676 61.265982 9.8199218 50.361164 10.296875 40.675781 C 10.376058 39.067834 10.443148 38.099112 10.521484 36.646484 L 16.228516 43.111328 A 1.0001 1.0001 0 1 0 17.728516 41.789062 L 10.679688 33.804688 C 10.757554 32.43717 10.841422 30.818105 10.912109 29.658203 L 16.994141 38.097656 A 1.0001 1.0001 0 1 0 18.617188 36.929688 L 11.103516 26.503906 C 11.238053 24.432029 11.374877 22.357331 11.414062 21.792969 L 35.550781 21.324219 z M 31.158203 27.121094 C 31.043141 27.141156 30.930422 27.184703 30.826172 27.251953 C 30.409172 27.520953 30.289594 28.077141 30.558594 28.494141 C 30.827594 28.911141 31.383781 29.030719 31.800781 28.761719 C 32.217781 28.492719 32.337359 27.936531 32.068359 27.519531 C 31.866609 27.206781 31.503391 27.060906 31.158203 27.121094 z M 33.25 34.414062 C 33.134937 34.434125 33.022219 34.477672 32.917969 34.544922 C 32.500969 34.813922 32.379438 35.370109 32.648438 35.787109 C 32.917438 36.204109 33.475578 36.323687 33.892578 36.054688 C 34.309578 35.784687 34.429156 35.2295 34.160156 34.8125 C 33.958406 34.49975 33.595188 34.353875 33.25 34.414062 z M 24.164062 34.5 C 24.049 34.520063 23.934328 34.563609 23.830078 34.630859 C 23.413078 34.899859 23.2935 35.456047 23.5625 35.873047 C 23.8315 36.290047 24.389641 36.411578 24.806641 36.142578 C 25.223641 35.873578 25.343219 35.315438 25.074219 34.898438 C 24.872469 34.585687 24.50925 34.439813 24.164062 34.5 z M 90.275391 36.851562 C 90.18944 38.051253 90.099729 39.181302 90.011719 40.335938 L 85.25 42.478516 A 1.0004865 1.0004865 0 1 0 86.072266 44.302734 L 89.839844 42.605469 C 89.734416 43.921272 89.623558 45.167468 89.511719 46.421875 L 85.207031 47.400391 A 1.0001 1.0001 0 1 0 85.650391 49.349609 L 89.326172 48.513672 C 89.198043 49.856721 89.058567 51.139242 88.917969 52.408203 L 84.996094 51.988281 A 1.0001 1.0001 0 0 0 84.896484 51.982422 A 1.0001 1.0001 0 0 0 84.783203 53.976562 L 88.6875 54.394531 C 88.512311 55.845205 88.32872 57.259436 88.128906 58.607422 L 85.693359 57.162109 A 1.0001 1.0001 0 0 0 85.121094 57.017578 A 1.0001 1.0001 0 0 0 84.673828 58.882812 L 87.78125 60.728516 C 87.581938 61.924264 87.38152 63.116393 87.154297 64.224609 L 85.607422 62.630859 A 1.0001 1.0001 0 0 0 84.894531 62.318359 A 1.0001 1.0001 0 0 0 84.171875 64.025391 L 86.638672 66.5625 C 86.034467 69.088624 85.33465 71.360803 84.507812 73.378906 C 83.854697 71.022186 83.306926 68.271474 83.009766 65.005859 C 82.512374 59.53982 82.484344 53.219178 82.675781 47.244141 C 82.798065 43.427489 83.059042 40.429469 83.289062 37.197266 L 90.275391 36.851562 z M 38.298828 41.433594 C 37.145123 41.456806 35.866582 41.67141 34.476562 42.162109 C 32.637341 42.811431 31.038639 44.50528 30.048828 46.611328 C 29.059017 48.717376 28.715165 51.323295 29.830078 53.712891 C 31.37904 57.031862 33.939425 58.565407 36.359375 59.425781 C 38.779325 60.286155 41.087282 60.632869 42.427734 61.470703 C 42.792756 61.698622 43.263182 62.292704 43.576172 62.837891 C 43.889162 63.383078 44.060547 63.832031 44.060547 63.832031 A 1.0002375 1.0002375 0 0 0 44.068359 63.849609 A 1.0004702 1.0004702 0 0 0 44.095703 63.912109 A 1.0002375 1.0002375 0 0 0 44.113281 63.943359 A 1.0004702 1.0004702 0 0 0 44.140625 63.992188 A 1.0002375 1.0002375 0 0 0 44.162109 64.027344 A 1.0004702 1.0004702 0 0 0 44.191406 64.070312 A 1.0002375 1.0002375 0 0 0 44.236328 64.125 A 1.0004702 1.0004702 0 0 0 44.248047 64.138672 A 1.0002375 1.0002375 0 0 0 44.310547 64.203125 A 1.0004702 1.0004702 0 0 0 44.3125 64.205078 A 1.0004702 1.0004702 0 0 0 44.314453 64.207031 A 1.0002375 1.0002375 0 0 0 44.380859 64.263672 A 1.0004702 1.0004702 0 0 0 44.400391 64.277344 A 1.0002375 1.0002375 0 0 0 45.515625 64.328125 A 1.0004702 1.0004702 0 0 0 45.519531 64.326172 A 1.0002375 1.0002375 0 0 0 45.599609 64.271484 A 1.0004702 1.0004702 0 0 0 45.607422 64.263672 A 1.0002375 1.0002375 0 0 0 45.808594 64.056641 A 1.0004702 1.0004702 0 0 0 45.810547 64.052734 A 1.0002375 1.0002375 0 0 0 45.894531 63.910156 A 1.0004702 1.0004702 0 0 0 45.923828 63.845703 C 45.923828 63.845703 45.925781 63.84375 45.925781 63.84375 A 1.0002375 1.0002375 0 0 0 45.929688 63.833984 C 45.936875 63.816195 46.108274 63.391659 46.419922 62.857422 C 46.738149 62.311905 47.209511 61.704178 47.585938 61.453125 C 49.104855 60.440375 51.583017 60.200423 54.09375 59.330078 C 56.604483 58.459734 59.139425 56.693133 60.21875 52.736328 C 61.565134 47.799219 59.089104 43.233664 55.466797 42.146484 C 54.360425 41.814627 53.312605 41.672132 52.328125 41.675781 C 49.399954 41.686638 47.037849 42.992564 45.388672 44.462891 C 44.944002 43.953816 44.167818 43.181906 42.978516 42.533203 C 42.033874 42.01795 40.836027 41.598006 39.410156 41.470703 C 39.053689 41.438878 38.683397 41.425856 38.298828 41.433594 z M 38.345703 43.414062 C 39.901999 43.374738 41.101662 43.785394 42.021484 44.287109 C 43.092223 44.871141 43.727581 45.55685 44 45.892578 C 42.702797 47.422243 42.054687 48.785156 42.054688 48.785156 A 1.0003091 1.0003091 0 0 0 43.861328 49.644531 C 43.861328 49.644531 44.8089 47.671748 46.681641 45.986328 C 48.554381 44.300908 51.170067 42.945929 54.892578 44.0625 C 57.214271 44.75932 59.386679 48.186045 58.289062 52.210938 C 57.365387 55.597132 55.62222 56.682798 53.439453 57.439453 C 51.256686 58.196109 48.624645 58.356812 46.476562 59.789062 A 1.0001 1.0001 0 0 0 46.476562 59.791016 C 45.834617 60.219154 45.367061 60.793808 45.005859 61.341797 C 44.641576 60.781951 44.162908 60.196626 43.488281 59.775391 C 41.569733 58.576225 39.192596 58.312095 37.029297 57.542969 C 34.865997 56.773843 32.945616 55.659216 31.642578 52.867188 C 30.831491 51.128782 31.062186 49.159092 31.859375 47.462891 C 32.656564 45.766689 34.055799 44.432506 35.142578 44.048828 C 36.349809 43.622655 37.411925 43.437657 38.345703 43.414062 z M 19.259766 54.335938 A 1.0001 1.0001 0 0 0 18.992188 54.369141 L 14.480469 55.501953 A 1.0001 1.0001 0 1 0 14.966797 57.441406 L 19.478516 56.310547 A 1.0001 1.0001 0 0 0 19.259766 54.335938 z M 68.757812 62.945312 C 68.64275 62.965375 68.530031 63.006969 68.425781 63.074219 C 68.008781 63.343219 67.88725 63.901359 68.15625 64.318359 C 68.42525 64.735359 68.983391 64.854938 69.400391 64.585938 C 69.817391 64.316938 69.936969 63.76075 69.667969 63.34375 C 69.466219 63.031 69.103 62.885125 68.757812 62.945312 z M 61.017578 66.513672 C 60.902516 66.533734 60.789797 66.577281 60.685547 66.644531 C 60.268547 66.913531 60.148969 67.469719 60.417969 67.886719 C 60.686969 68.303719 61.243156 68.423297 61.660156 68.154297 C 62.076156 67.885297 62.195734 67.329109 61.927734 66.912109 C 61.725984 66.599359 61.362766 66.453484 61.017578 66.513672 z M 32.373047 68.810547 A 1.0001 1.0001 0 0 0 31.488281 69.470703 L 30.234375 72.806641 A 1.0001 1.0001 0 1 0 32.105469 73.511719 L 33.359375 70.175781 A 1.0001 1.0001 0 0 0 32.373047 68.810547 z"/></svg>